<?xml version="1.0" encoding="utf-8"?>
<!-- Generator: Adobe Illustrator 24.0.2, SVG Export Plug-In . SVG Version: 6.00 Build 0)  -->
<svg version="1.1" id="Layer_1" xmlns="http://www.w3.org/2000/svg" xmlns:xlink="http://www.w3.org/1999/xlink" x="0px" y="0px"
	 viewBox="0 0 512 512" style="enable-background:new 0 0 512 512;" xml:space="preserve">
<style type="text/css">
	.st0{fill:#FDB531;}
</style>
<g id="Page-1">
	<g id="_x30_19---Airport-Taxi">
		<path id="Shape" class="st0" d="M494.9,419.7v-86.9c0-18.9-15.3-34.1-34.1-34.1h-20.1l-35.8-78.9c-4.2-9.1-13.3-15-23.3-15h-31.7
			v-25.6c0-9.4-7.6-17.1-17.1-17.1h-93.9c-9.4,0-17.1,7.6-17.1,17.1v25.6h-32.5c-9.4,0-18,5.1-22.5,13.3l-43.9,80.5H51.2
			c-18.9,0-34.1,15.3-34.1,34.1v86.9c-3.6,1.2-6.8,3.2-9.4,5.9C2.7,430.3,0,436.9,0,443.7c0,14.1,11.5,25.6,25.6,25.6h29.3
			c9,25.6,33.2,42.7,60.3,42.7s51.3-17.1,60.3-42.7h169.6c9,25.6,33.2,42.7,60.3,42.7s51.3-17.1,60.3-42.7h20.8
			c14.1-0.1,25.5-11.5,25.6-25.6C512,432.9,505.1,423.3,494.9,419.7z M238.9,179.2h93.9v25.6h-93.9V179.2z M181.8,226.3
			c1.5-2.7,4.4-4.4,7.5-4.4h192.2c3.3,0,6.4,2,7.8,5l32.6,71.8h-76.2l20.5-47.8c1.3-2.8,0.9-6.1-0.9-8.6c-1.8-2.5-4.9-3.8-7.9-3.4
			c-3.1,0.4-5.7,2.4-6.8,5.2l-23.4,54.6h-118l20.5-47.8c1.8-4.3-0.2-9.3-4.5-11.1c-4.3-1.8-9.3,0.1-11.2,4.4l-23.4,54.6h-48.3
			L181.8,226.3z M128,315.7h332.8c9.4,0,17.1,7.6,17.1,17.1v85.3h-16c-11.1-21-32.8-34.1-56.6-34.1c-23.7,0-45.5,13.1-56.6,34.1
			h-177c-11.1-21-32.8-34.1-56.6-34.1s-45.5,13.1-56.6,34.1H34.1v-59.7h27.7c17.7,0,32.1-14.4,32.1-32.1v-10.6H128z M51.2,315.7
			h25.6v10.6c0,8.3-6.7,15-15,15H34.1v-8.5C34.1,323.4,41.8,315.7,51.2,315.7z M25.6,452.3c-4.7,0-8.5-3.8-8.5-8.5
			c0-2.3,0.9-4.5,2.6-6.1c1.6-1.6,3.7-2.5,5.9-2.5h26.9c-0.9,4.2-1.3,8.5-1.3,12.8c0,1.4,0.1,2.9,0.2,4.3H25.6z M115.2,494.9
			c-25.9,0-46.9-21-46.9-46.9c0-25.9,21-46.9,46.9-46.9s46.9,21,46.9,46.9C162.1,473.9,141.1,494.9,115.2,494.9z M179,452.3
			c0.1-1.4,0.2-2.8,0.2-4.3c0-4.3-0.4-8.6-1.3-12.8h164.7c-0.9,4.2-1.3,8.5-1.3,12.8c0,1.4,0.1,2.9,0.2,4.3H179z M405.3,494.9
			c-25.9,0-46.9-21-46.9-46.9c0-25.9,21-46.9,46.9-46.9c25.9,0,46.9,21,46.9,46.9C452.2,473.9,431.2,494.9,405.3,494.9z
			 M492.3,449.8c-1.6,1.6-3.7,2.5-5.9,2.5h-17.3c0.1-1.4,0.2-2.8,0.2-4.3c0-4.3-0.4-8.6-1.3-12.8h18.4c4.7,0,8.5,3.8,8.5,8.5
			C494.9,446,494,448.2,492.3,449.8z"/>
		<path id="Shape_1_" class="st0" d="M115.2,418.1c-16.5,0-29.9,13.4-29.9,29.9c0,16.5,13.4,29.9,29.9,29.9s29.9-13.4,29.9-29.9
			C145.1,431.5,131.7,418.1,115.2,418.1z M115.2,460.8c-7.1,0-12.8-5.7-12.8-12.8s5.7-12.8,12.8-12.8c7.1,0,12.8,5.7,12.8,12.8
			S122.3,460.8,115.2,460.8z"/>
		<path id="Shape_2_" class="st0" d="M405.3,418.1c-16.5,0-29.9,13.4-29.9,29.9c0,16.5,13.4,29.9,29.9,29.9
			c16.5,0,29.9-13.4,29.9-29.9C435.2,431.5,421.8,418.1,405.3,418.1z M405.3,460.8c-7.1,0-12.8-5.7-12.8-12.8s5.7-12.8,12.8-12.8
			c7.1,0,12.8,5.7,12.8,12.8S412.4,460.8,405.3,460.8z"/>
		<path id="Shape_3_" class="st0" d="M187.7,384h17.1c0,9.4,7.6,17.1,17.1,17.1h17.1c9.4,0,17.1-7.6,17.1-17.1h17.1
			c0,9.4,7.6,17.1,17.1,17.1h17.1c9.4,0,17.1-7.6,17.1-17.1h17.1c9.4,0,17.1-7.6,17.1-17.1v-17.1c0-9.4-7.6-17.1-17.1-17.1h-17.1
			c-9.4,0-17.1,7.6-17.1,17.1h-17.1c0-9.4-7.6-17.1-17.1-17.1H256c-9.4,0-17.1,7.6-17.1,17.1h-17.1c0-9.4-7.6-17.1-17.1-17.1h-17.1
			c-9.4,0-17.1,7.6-17.1,17.1v17.1C170.7,376.4,178.3,384,187.7,384z M324.3,349.9h17.1v17.1h-17.1V349.9z M307.2,366.9V384h-17.1
			v-17.1H307.2z M256,349.9h17.1v17.1H256V349.9z M238.9,366.9V384h-17.1v-17.1H238.9z M187.7,349.9h17.1v17.1h-17.1V349.9z"/>
		<path id="Shape_4_" class="st0" d="M473.2,50.2c-6-4.9-13.6-7.5-21.3-7.5H349.6L296,3.3c-2.9-2.2-6.5-3.3-10.1-3.3h-22.5
			c-6.3,0-12.1,3.5-15.1,9c-3,5.5-2.7,12.3,0.8,17.5l10.8,16.1h-75l-12.8-31.9C169.6,4.3,163.3,0,156.3,0h-11.3
			C135.6,0,128,7.6,128,17.1v51.2h-25.6c-4.7,0-8.5,3.8-8.5,8.5c0,4.7,3.8,8.5,8.5,8.5H128c0,23.6,19.1,42.6,42.7,42.7h75.8
			c-0.1,4.5,1.7,8.9,4.9,12.1c3.2,3.2,7.5,5,12.1,5h22.5c3.6,0,7.2-1.2,10.1-3.3l18.7-13.7h165.7c13.4,0,25.4-8.4,29.8-21.1
			c4.4-12.7,0.4-26.8-10.1-35.1L473.2,50.2z M462.5,63.5l16.6,13.3h-43.9c-4.7,0-8.5-3.8-8.5-8.5v-8.5l25.2,0
			C455.7,59.7,459.5,61.1,462.5,63.5z M263.4,17.1h22.5l34.9,25.6h-40.3L263.4,17.1z M490.7,106.7c-2.7,2.7-6.4,4.3-10.2,4.3H337.9
			l25.5-18.7c3.8-2.8,4.6-8.1,1.8-11.9c-2.8-3.8-8.1-4.6-11.9-1.8L285.9,128h-22.5l25.3-37.9c1.7-2.5,1.9-5.8,0.6-8.5
			s-4.1-4.5-7.1-4.7c-3-0.2-6,1.2-7.7,3.8l-20.2,30.3h-83.6c-14.1,0-25.6-11.5-25.6-25.6h17.1c4.7,0,8.5-3.8,8.5-8.5
			c0-4.7-3.8-8.5-8.5-8.5h-17.1V17.1h11.3l12.8,31.9c2.6,6.5,8.9,10.8,15.9,10.8h224.6v8.5c0,14.1,11.5,25.6,25.6,25.6h59.4
			c0.2,0.8,0.3,1.7,0.3,2.6C494.9,100.3,493.4,104,490.7,106.7z"/>
		<path id="Shape_5_" class="st0" d="M93.9,119.5h8.5c4.7,0,8.5-3.8,8.5-8.5c0-4.7-3.8-8.5-8.5-8.5h-8.5c-4.7,0-8.5,3.8-8.5,8.5
			C85.3,115.6,89.2,119.5,93.9,119.5z"/>
		<path id="Shape_6_" class="st0" d="M8.5,119.5h51.2c4.7,0,8.5-3.8,8.5-8.5c0-4.7-3.8-8.5-8.5-8.5H8.5c-4.7,0-8.5,3.8-8.5,8.5
			C0,115.6,3.8,119.5,8.5,119.5z"/>
		<path id="Shape_7_" class="st0" d="M8.5,51.2h8.5c4.7,0,8.5-3.8,8.5-8.5s-3.8-8.5-8.5-8.5H8.5C3.8,34.1,0,38,0,42.7
			S3.8,51.2,8.5,51.2z"/>
		<path id="Shape_8_" class="st0" d="M110.9,42.7c0-4.7-3.8-8.5-8.5-8.5H51.2c-4.7,0-8.5,3.8-8.5,8.5s3.8,8.5,8.5,8.5h51.2
			C107.1,51.2,110.9,47.4,110.9,42.7z"/>
		<path id="Shape_9_" class="st0" d="M8.5,85.3h59.7c4.7,0,8.5-3.8,8.5-8.5c0-4.7-3.8-8.5-8.5-8.5H8.5c-4.7,0-8.5,3.8-8.5,8.5
			C0,81.5,3.8,85.3,8.5,85.3z"/>
	</g>
</g>
</svg>
