<?xml version="1.0" encoding="UTF-8"?>
<svg xmlns="http://www.w3.org/2000/svg" id="Outline" viewBox="0 0 512 512" width="512" fill="#FDB531" height="512"><path d="M472,256a207.426,207.426,0,0,0-11.886-69.439l10.731-37.953A72.262,72.262,0,0,0,504,88,72.019,72.019,0,0,0,361.725,72.35a207.753,207.753,0,0,0-243.082,34.887A72,72,0,0,0,41.155,228.609L53.009,270.53a23.794,23.794,0,0,0,4.24,8.276A208.006,208.006,0,0,0,264,464C378.691,464,472,370.691,472,256Zm-120,0H320a8,8,0,0,1,0-16h32a24,24,0,0,0,0-48h-8a8,8,0,0,1,0-16h56.9l4.109,14.53A24.09,24.09,0,0,0,428.1,208H435.9a23.919,23.919,0,0,0,13.009-3.864A192.823,192.823,0,0,1,453.319,288H368a8.009,8.009,0,0,1-8-8V264A8,8,0,0,0,352,256ZM376.014,86.744c.65-29.755,25.394-54.309,55.159-54.738A56,56,0,0,1,488,88a56.209,56.209,0,0,1-28.007,48.492,8,8,0,0,0-3.691,4.747L443.6,186.177A8.031,8.031,0,0,1,435.9,192H428.1a8.031,8.031,0,0,1-7.7-5.823L407.7,141.239a8,8,0,0,0-3.691-4.747A56.07,56.07,0,0,1,376.014,86.744ZM295.357,66.582A191.829,191.829,0,0,1,328,74.943V104a8.009,8.009,0,0,1-8,8H272a8,8,0,1,1,0-16,23.91,23.91,0,0,0,23.357-29.418ZM52.007,216.492a56.07,56.07,0,0,1-27.993-49.748c.65-29.755,25.394-54.309,55.159-54.738A56,56,0,0,1,136,168a56.209,56.209,0,0,1-28.007,48.492,8,8,0,0,0-3.691,4.747L91.6,266.177A8.031,8.031,0,0,1,83.9,272H76.1a8.031,8.031,0,0,1-7.7-5.823L55.7,221.239A8,8,0,0,0,52.007,216.492ZM147.845,192H192a8.009,8.009,0,0,1,8,8v16a8,8,0,0,0,8,8h32a8,8,0,0,1,0,16H176a8,8,0,0,0-8,8v16a8.009,8.009,0,0,1-8,8H144a24,24,0,0,0,0,48h56a8,8,0,0,1,0,16H89.419a190.872,190.872,0,0,1-14.766-48.061c.481.03.963.061,1.45.061H83.9a24.09,24.09,0,0,0,23.094-17.47l11.854-41.922A72.338,72.338,0,0,0,147.845,192Zm-12.94,206.123A192.57,192.57,0,0,1,97.693,352H200a24,24,0,1,0,0-48H144a8,8,0,1,1,0-16h16a24.028,24.028,0,0,0,24-24v-8h56a24,24,0,1,0,0-48H216v-8a24.028,24.028,0,0,0-24-24H151.541a71.7,71.7,0,0,0-20.37-58.627A190.2,190.2,0,0,1,264,64c3.38,0,6.75.116,10.113.292A7.994,7.994,0,0,1,272,80a24,24,0,1,0,0,48h48a24.027,24.027,0,0,0,24-24V81.444q8.193,3.756,16.031,8.29a72.067,72.067,0,0,0,33.124,58.875L396.376,160H344a24,24,0,1,0,0,48h8a8,8,0,0,1,0,16H320a24,24,0,1,0,0,48h24v8a24.028,24.028,0,0,0,24,24h81.925q-2.1,8.146-4.907,16H352a24,24,0,1,0,0,48,8,8,0,0,1,0,16H320a24,24,0,0,0,0,48h20.69a191.93,191.93,0,0,1-205.785-33.877Zm233.1,19.2V416H320a8,8,0,0,1,0-16h32a24,24,0,1,0,0-48,8,8,0,1,1,0-16h86.518A193.271,193.271,0,0,1,368,417.322Z"/><path d="M224,368H192a24,24,0,0,0,0,48h32a24,24,0,0,0,0-48Zm0,32H192a8,8,0,0,1,0-16h32a8,8,0,0,1,0,16Z"/><path d="M208,112H176a24,24,0,0,0,0,48h32a24,24,0,0,0,0-48Zm0,32H176a8,8,0,0,1,0-16h32a8,8,0,0,1,0,16Z"/><path d="M432,112a24,24,0,1,0-24-24A24.027,24.027,0,0,0,432,112Zm0-32a8,8,0,1,1-8,8A8.009,8.009,0,0,1,432,80Z"/><path d="M248.823,479.494a225,225,0,0,1-30.287-4.108,8,8,0,1,0-3.229,15.67,241.06,241.06,0,0,0,32.447,4.4c.183.012.363.018.542.018a8,8,0,0,0,.527-15.983Z"/><path d="M309.685,475.339a224.9,224.9,0,0,1-30.282,4.14,8,8,0,0,0,.534,15.981c.182,0,.365-.006.549-.019a240.808,240.808,0,0,0,32.445-4.434,8,8,0,0,0-3.246-15.668Z"/><path d="M189.08,467.167a223.491,223.491,0,0,1-28.045-12.18,8,8,0,1,0-7.365,14.2,239.252,239.252,0,0,0,30.06,13.055,8,8,0,1,0,5.35-15.078Z"/><path d="M367.129,454.9a223.51,223.51,0,0,1-28.02,12.2,8,8,0,1,0,5.364,15.074A239.7,239.7,0,0,0,374.507,469.1a8,8,0,1,0-7.378-14.2Z"/><path d="M134.916,439.09a225.612,225.612,0,0,1-23.717-19.3,8,8,0,0,0-10.918,11.7,241.793,241.793,0,0,0,25.4,20.669,8,8,0,0,0,9.231-13.068Z"/><path d="M416.912,419.689A226.1,226.1,0,0,1,393.214,439a8,8,0,1,0,9.242,13.061,242.246,242.246,0,0,0,25.38-20.68,8,8,0,1,0-10.924-11.69Z"/><path d="M72.656,372.526A8,8,0,0,0,59,380.862a241.49,241.49,0,0,0,18.917,26.716,8,8,0,1,0,12.4-10.111A225.41,225.41,0,0,1,72.656,372.526Z"/><path d="M466.428,369.71a8,8,0,0,0-11,2.67,225.371,225.371,0,0,1-17.651,24.967,8,8,0,0,0,12.406,10.1A241.14,241.14,0,0,0,469.1,380.7,8,8,0,0,0,466.428,369.71Z"/><path d="M58.562,345.429A223.079,223.079,0,0,1,48.3,316.645,8,8,0,0,0,32.9,320.967a239.235,239.235,0,0,0,11,30.856,8,8,0,0,0,14.667-6.394Z"/><path d="M489.614,310.878a8.005,8.005,0,0,0-9.858,5.552,222.9,222.9,0,0,1-10.237,28.812,8,8,0,1,0,14.673,6.381,239.237,239.237,0,0,0,10.974-30.887A8,8,0,0,0,489.614,310.878Z"/><path d="M35.25,295.738a8,8,0,0,0,6.839-9.012A227.1,227.1,0,0,1,40,256.224a8,8,0,0,0-8-7.993h-.007A8,8,0,0,0,24,256.239a242.977,242.977,0,0,0,2.238,32.66,7.993,7.993,0,0,0,9.012,6.839Z"/><path d="M496,247.537h-.025A8,8,0,0,0,488,255.562V256a226.926,226.926,0,0,1-2.059,30.5A8,8,0,1,0,501.8,288.66a242.886,242.886,0,0,0,2.2-32.635v-.513A8,8,0,0,0,496,247.537Z"/><path d="M485.168,185.271a8,8,0,0,0-5.532,9.87,223.51,223.51,0,0,1,6.245,29.913,8,8,0,0,0,7.915,6.906,8.112,8.112,0,0,0,1.105-.076,8,8,0,0,0,6.83-9.02,239.858,239.858,0,0,0-6.694-32.061A8,8,0,0,0,485.168,185.271Z"/><path d="M104,168a24,24,0,1,0-24,24A24.027,24.027,0,0,0,104,168Zm-32,0a8,8,0,1,1,8,8A8.009,8.009,0,0,1,72,168Z"/></svg>
