<?xml version="1.0" encoding="utf-8"?>
<!-- Generator: Adobe Illustrator 24.0.2, SVG Export Plug-In . SVG Version: 6.00 Build 0)  -->
<svg version="1.1" id="Layer_1" xmlns="http://www.w3.org/2000/svg" xmlns:xlink="http://www.w3.org/1999/xlink" x="0px" y="0px"
	 viewBox="0 0 575 575" style="enable-background:new 0 0 575 575;" xml:space="preserve">
<style type="text/css">
	.st0{fill:#FDB531;}
</style>
<g id="surface1">
	<path class="st0" d="M334.4,278.1h-38.3v-19.2h38.3V278.1z"/>
	<path class="st0" d="M-1,239.8l0,77.6c-0.1,14.9,9,28.3,22.9,33.8l31,12.5c1.1,0.5,2.3,0.7,3.6,0.7h3.4
		c5.8,16.4,18.7,29.4,35.1,35.1c29.9,10.5,62.6-5.3,73-35.1h256.1c5.8,16.4,18.7,29.4,35.1,35.1c29.9,10.5,62.6-5.3,73-35.1h32.2
		c5.3,0,9.6-4.3,9.6-9.6v-56.9c0-15.6-8.4-30.1-22-37.9c-33.4-19-71.1-29.3-109.6-29.7l-32.9-17.9c-47.7-26-101.2-39.6-155.6-39.7
		h-11.3c-46.1-0.1-91.6,9.8-133.5,28.8c-12.7,5.7-25,12.3-36.9,19.5l-65.1,9.3C2.5,231-1,235-1,239.8z M439.9,345.2
		c0-18.2,12.8-33.9,30.7-37.6c20.7-4.2,41,9.1,45.2,29.9c4.2,20.7-9.1,41-29.9,45.2c-20.7,4.2-41-9.1-45.2-29.9
		C440.1,350.3,439.9,347.8,439.9,345.2z M267.4,249.4h172.5c36,0,71.4,9.4,102.7,27.3c7.6,4.4,12.3,12.5,12.3,21.2v47.3h-19.2
		c0-31.8-25.7-57.5-57.5-57.5s-57.5,25.7-57.5,57.5H267.4V249.4z M267.4,192.3c46.6,2,92.1,14.6,133.1,36.9l1.8,1H267.4V192.3z
		 M248.2,230.2H146.7L130,213.5c35.9-14.3,74.1-21.6,112.8-21.6h5.4V230.2z M75.7,345.2c0-18.2,12.8-33.9,30.7-37.6
		c20.7-4.2,41,9.1,45.2,29.9c4.2,20.7-9.1,41-29.9,45.2c-20.7,4.2-41-9.1-45.2-29.9C75.9,350.3,75.7,347.8,75.7,345.2z M18.2,248.1
		l58.9-8.4c1.3-0.2,2.6-0.7,3.7-1.4c9.8-6.1,20-11.7,30.4-16.6l24.9,24.9c1.8,1.8,4.2,2.8,6.8,2.8h105.4v95.8h-76.7
		c0-31.7-25.8-57.5-57.5-57.5c-2,0-3.9,0.1-5.8,0.3c-0.7,0.1-1.4,0.2-2.1,0.3c-1.2,0.2-2.4,0.3-3.6,0.5c-0.7,0.2-1.4,0.4-2.2,0.6
		c-1.1,0.3-2.2,0.5-3.3,0.9c-0.8,0.3-1.4,0.5-2.4,0.9c-1,0.3-2.1,0.7-2.9,1.1c-0.8,0.3-1.5,0.7-2.4,1.1s-1.8,0.9-2.6,1.3
		c-0.8,0.4-1.4,0.8-2.3,1.4c-0.8,0.5-1.7,1-2.5,1.5c-0.8,0.5-1.5,1.1-2.2,1.6c-0.7,0.5-1.5,1-2.2,1.6c-0.7,0.6-1.4,1.3-2.1,1.9
		c-0.7,0.6-1.3,1.1-2,1.8c-0.7,0.7-1.3,1.5-1.9,2.1c-0.6,0.6-1.2,1.2-1.8,1.9s-1.2,1.6-1.7,2.3s-1,1.3-1.6,2.1
		c-0.5,0.8-1.1,1.7-1.5,2.4c-0.4,0.8-0.9,1.5-1.4,2.3c-0.4,0.8-0.8,1.7-1.2,2.5c-0.4,0.8-0.9,1.6-1.2,2.5c-0.3,0.9-0.6,1.8-1,2.6
		c-0.3,0.9-0.7,1.7-1,2.6c-0.3,0.9-0.5,1.8-0.7,2.7c-0.2,0.9-0.5,1.9-0.7,2.8c-0.2,0.9-0.3,1.8-0.5,2.8c-0.2,1-0.3,1.9-0.4,2.9
		c-0.1,1-0.1,2-0.2,2.9c-0.1,0.9-0.2,1.8-0.2,2.6l-27.5-11c-6.6-2.6-10.9-8.9-10.8-16v-39.3h28.8v-19.2H18.2V248.1z"/>
</g>
</svg>
