<?xml version="1.0" encoding="iso-8859-1"?>
<!-- Generator: Adobe Illustrator 19.0.0, SVG Export Plug-In . SVG Version: 6.00 Build 0)  -->
<svg version="1.1" id="Capa_1" xmlns="http://www.w3.org/2000/svg" xmlns:xlink="http://www.w3.org/1999/xlink" x="0px" y="0px"
	 viewBox="0 0 480 480" fill="#FDB531" style="enable-background:new 0 0 480 480;" xml:space="preserve">
<g>
	<g>
		<path d="M322.344,191.04l-32-32c-4.492-4.518-10.605-7.05-16.976-7.032h-98.736c-6.371-0.018-12.484,2.514-16.976,7.032l-32,32
			c-9.371,9.374-9.369,24.57,0.005,33.941c4.501,4.5,10.606,7.028,16.971,7.027h162.736c13.255,0.002,24.001-10.742,24.003-23.997
			C329.372,201.646,326.844,195.541,322.344,191.04z M152,216.008h-9.368c-3.262,0.057-6.22-1.907-7.432-4.936
			c-1.282-2.986-0.592-6.453,1.736-8.72L152,187.32V216.008z M232,216.008h-64V171.32l0.968-0.968
			c1.499-1.507,3.539-2.351,5.664-2.344H232V216.008z M312.8,211.072c-1.207,3.015-4.145,4.977-7.392,4.936H248v-48h25.368
			c2.125-0.007,4.165,0.837,5.664,2.344l32,32C313.371,204.611,314.074,208.079,312.8,211.072z"/>
	</g>
</g>
<g>
	<g>
		<path d="M440,216.008h-34.744c-6.36-0.018-12.456-2.542-16.968-7.024l-77.256-77.256c-7.485-7.529-17.672-11.749-28.288-11.72H264
			v-24c0-4.418-3.582-8-8-8h-32c-4.418,0-8,3.582-8,8v24h-50.744c-10.612-0.029-20.796,4.188-28.28,11.712l-77.264,77.264
			c-4.512,4.482-10.608,7.006-16.968,7.024H40c-22.08,0.026-39.974,17.92-40,40v48c0.026,22.08,17.92,39.974,40,40h8.64
			c4.391,30.574,32.736,51.8,63.311,47.409c24.574-3.529,43.88-22.836,47.409-47.409h161.28c4.391,30.574,32.736,51.8,63.311,47.409
			c24.574-3.529,43.88-22.836,47.409-47.409H440c22.08-0.026,39.974-17.92,40-40v-48C479.974,233.927,462.08,216.034,440,216.008z
			 M448,233.48c0.192,0.072,0.392,0.112,0.584,0.184c1.061,0.427,2.091,0.929,3.08,1.504c0.464,0.264,0.96,0.472,1.408,0.8
			c2.795,1.826,5.182,4.213,7.008,7.008c0.288,0.448,0.504,0.944,0.8,1.408c0.575,0.989,1.077,2.018,1.504,3.08
			c0.072,0.192,0.112,0.392,0.184,0.584H448V233.48z M232,104.008h16v16h-16V104.008z M17.656,247.424
			c0.424-1.061,0.924-2.091,1.496-3.08c0.264-0.464,0.472-0.96,0.8-1.408c1.827-2.795,4.213-5.181,7.008-7.008
			c0.448-0.288,0.944-0.504,1.408-0.8c0.989-0.572,2.019-1.072,3.08-1.496c0.192-0.072,0.392-0.112,0.584-0.184v14.56h-14.56
			C17.544,247.816,17.584,247.608,17.656,247.424z M104,376.008c-22.091,0-40-17.909-40-40c0-22.091,17.909-40,40-40
			s40,17.909,40,40C143.974,358.088,126.08,375.981,104,376.008z M376,376.008c-22.091,0-40-17.909-40-40c0-22.091,17.909-40,40-40
			c22.091,0,40,17.909,40,40C415.974,358.088,398.08,375.981,376,376.008z M464,296.008h-16v16h14.528
			c-3.378,9.555-12.394,15.958-22.528,16h-8.568c-0.088-0.616-0.24-1.208-0.344-1.816c-0.136-0.8-0.272-1.528-0.432-2.28
			c-0.224-1.008-0.496-2-0.8-2.992c-0.2-0.712-0.384-1.424-0.608-2.128c-0.336-1.024-0.72-2.024-1.112-3.024
			c-0.248-0.632-0.464-1.272-0.728-1.888c-0.48-1.12-1.032-2.2-1.6-3.28c-0.24-0.464-0.448-0.944-0.696-1.408
			c-0.827-1.509-1.717-2.976-2.672-4.4c-0.24-0.352-0.512-0.68-0.76-1.032c-0.752-1.056-1.512-2.104-2.328-3.112
			c-0.416-0.504-0.864-0.976-1.288-1.464c-0.704-0.8-1.408-1.6-2.16-2.4c-0.496-0.512-1.024-0.984-1.544-1.472
			c-0.736-0.696-1.464-1.384-2.24-2.032c-0.56-0.48-1.144-0.928-1.728-1.384c-0.8-0.608-1.56-1.2-2.4-1.768
			c-0.616-0.432-1.248-0.84-1.88-1.248c-0.821-0.533-1.656-1.04-2.504-1.52c-0.664-0.376-1.328-0.744-2-1.096
			c-0.872-0.456-1.768-0.88-2.664-1.288c-0.688-0.312-1.368-0.616-2.072-0.904c-0.944-0.384-1.896-0.72-2.864-1.048
			c-0.696-0.24-1.392-0.488-2.104-0.696c-1.024-0.304-2.064-0.552-3.104-0.8c-0.688-0.16-1.36-0.344-2.056-0.48
			c-1.168-0.232-2.4-0.392-3.56-0.544c-0.592-0.08-1.176-0.192-1.776-0.248c-1.728-0.144-3.56-0.248-5.408-0.248
			c-1.848,0-3.68,0.104-5.48,0.28c-0.6,0.056-1.184,0.168-1.776,0.248c-1.192,0.152-2.4,0.312-3.56,0.544
			c-0.696,0.136-1.368,0.32-2.056,0.48c-1.048,0.248-2.088,0.496-3.104,0.8c-0.712,0.208-1.4,0.456-2.104,0.696
			c-0.968,0.328-1.92,0.672-2.864,1.048c-0.704,0.28-1.384,0.592-2.072,0.904c-0.904,0.408-1.792,0.8-2.664,1.288
			c-0.68,0.352-1.344,0.712-2,1.096c-0.848,0.485-1.683,0.992-2.504,1.52c-0.632,0.408-1.264,0.8-1.88,1.248
			c-0.8,0.568-1.6,1.16-2.4,1.768c-0.584,0.456-1.168,0.904-1.728,1.384c-0.8,0.656-1.504,1.344-2.24,2.032
			c-0.52,0.488-1.048,0.968-1.544,1.472c-0.752,0.8-1.448,1.6-2.16,2.4c-0.432,0.488-0.88,0.96-1.288,1.464
			c-0.8,1-1.6,2.048-2.328,3.112c-0.248,0.352-0.52,0.672-0.76,1.032c-0.955,1.419-1.845,2.885-2.672,4.4
			c-0.248,0.456-0.456,0.944-0.696,1.408c-0.552,1.08-1.096,2.16-1.6,3.28c-0.264,0.616-0.488,1.256-0.728,1.888
			c-0.392,1-0.8,2-1.112,3.024c-0.224,0.704-0.408,1.416-0.608,2.128c-0.28,0.992-0.544,1.976-0.8,2.992
			c-0.168,0.752-0.296,1.512-0.432,2.28c-0.104,0.608-0.256,1.2-0.344,1.816H159.432c-0.088-0.616-0.24-1.208-0.344-1.816
			c-0.136-0.8-0.272-1.528-0.432-2.28c-0.224-1.008-0.496-2-0.8-2.992c-0.2-0.712-0.384-1.424-0.608-2.128
			c-0.336-1.024-0.72-2.024-1.112-3.024c-0.248-0.632-0.464-1.272-0.728-1.888c-0.48-1.12-1.032-2.2-1.6-3.28
			c-0.24-0.464-0.448-0.944-0.696-1.408c-0.827-1.509-1.717-2.976-2.672-4.4c-0.24-0.352-0.512-0.68-0.76-1.032
			c-0.752-1.056-1.512-2.104-2.328-3.112c-0.416-0.504-0.864-0.976-1.288-1.464c-0.704-0.8-1.408-1.6-2.16-2.4
			c-0.496-0.512-1.024-0.984-1.544-1.472c-0.736-0.696-1.464-1.384-2.24-2.032c-0.56-0.48-1.144-0.928-1.728-1.384
			c-0.8-0.608-1.56-1.2-2.4-1.768c-0.616-0.432-1.248-0.84-1.88-1.248c-0.821-0.533-1.656-1.04-2.504-1.52
			c-0.664-0.376-1.328-0.744-2-1.096c-0.872-0.456-1.768-0.88-2.664-1.288c-0.688-0.312-1.368-0.616-2.072-0.904
			c-0.944-0.384-1.896-0.72-2.864-1.048c-0.696-0.24-1.392-0.488-2.104-0.696c-1.024-0.304-2.064-0.552-3.104-0.8
			c-0.688-0.16-1.36-0.344-2.056-0.48c-1.168-0.232-2.4-0.392-3.56-0.544c-0.592-0.08-1.176-0.192-1.776-0.248
			c-1.728-0.176-3.56-0.28-5.408-0.28s-3.68,0.104-5.48,0.28c-0.6,0.056-1.184,0.168-1.776,0.248c-1.192,0.152-2.4,0.312-3.56,0.544
			c-0.696,0.136-1.368,0.32-2.056,0.48c-1.048,0.248-2.088,0.496-3.104,0.8c-0.712,0.208-1.4,0.456-2.104,0.696
			c-0.968,0.328-1.92,0.672-2.864,1.048c-0.704,0.28-1.384,0.592-2.072,0.904c-0.904,0.408-1.792,0.8-2.664,1.288
			c-0.68,0.352-1.344,0.712-2,1.096c-0.848,0.485-1.683,0.992-2.504,1.52c-0.632,0.408-1.264,0.8-1.88,1.248
			c-0.8,0.568-1.6,1.16-2.4,1.768c-0.584,0.456-1.168,0.904-1.728,1.384c-0.8,0.656-1.504,1.344-2.24,2.032
			c-0.52,0.488-1.048,0.968-1.544,1.472c-0.752,0.8-1.448,1.6-2.16,2.4c-0.432,0.488-0.88,0.96-1.288,1.464
			c-0.8,1-1.6,2.048-2.328,3.112c-0.248,0.352-0.52,0.672-0.76,1.032c-0.955,1.419-1.845,2.885-2.672,4.4
			c-0.248,0.456-0.456,0.944-0.696,1.408c-0.552,1.08-1.096,2.16-1.6,3.28c-0.264,0.616-0.488,1.256-0.728,1.888
			c-0.392,1-0.8,2-1.112,3.024c-0.224,0.704-0.408,1.416-0.608,2.128c-0.28,0.992-0.544,1.976-0.8,2.992
			c-0.168,0.752-0.296,1.512-0.432,2.28c-0.104,0.608-0.256,1.2-0.344,1.816H40c-13.255,0-24-10.745-24-24v-40.032h24
			c4.418,0,8-3.582,8-8v-24.512c8.704-1.078,16.803-5.018,23.024-11.2l77.256-77.256c4.513-4.487,10.612-7.014,16.976-7.032h117.488
			c6.36,0.018,12.456,2.542,16.968,7.024l77.256,77.256c7.485,7.529,17.672,11.749,28.288,11.72H432v24c0,4.418,3.582,8,8,8h24
			V296.008z"/>
	</g>
</g>
<g>
	<g>
		<path d="M104,312.008c-13.255,0-24,10.745-24,24s10.745,24,24,24s24-10.745,24-24S117.255,312.008,104,312.008z M104,344.008
			c-4.418,0-8-3.582-8-8s3.582-8,8-8s8,3.582,8,8S108.418,344.008,104,344.008z"/>
	</g>
</g>
<g>
	<g>
		<path d="M376,312.008c-13.255,0-24,10.745-24,24s10.745,24,24,24s24-10.745,24-24S389.255,312.008,376,312.008z M376,344.008
			c-4.418,0-8-3.582-8-8s3.582-8,8-8s8,3.582,8,8S380.418,344.008,376,344.008z"/>
	</g>
</g>
<g>
	<g>
		<rect x="176" y="296.008" width="16" height="16"/>
	</g>
</g>
<g>
	<g>
		<rect x="192" y="280.008" width="16" height="16"/>
	</g>
</g>
<g>
	<g>
		<rect x="208" y="296.008" width="16" height="16"/>
	</g>
</g>
<g>
	<g>
		<rect x="224" y="280.008" width="16" height="16"/>
	</g>
</g>
<g>
	<g>
		<rect x="240" y="296.008" width="16" height="16"/>
	</g>
</g>
<g>
	<g>
		<rect x="256" y="280.008" width="16" height="16"/>
	</g>
</g>
<g>
	<g>
		<rect x="272" y="296.008" width="16" height="16"/>
	</g>
</g>
<g>
	<g>
		<rect x="288" y="280.008" width="16" height="16"/>
	</g>
</g>
<g>
	<g>
		<rect x="176" y="264.008" width="16" height="16"/>
	</g>
</g>
<g>
	<g>
		<rect x="208" y="264.008" width="16" height="16"/>
	</g>
</g>
<g>
	<g>
		<rect x="240" y="264.008" width="16" height="16"/>
	</g>
</g>
<g>
	<g>
		<rect x="272" y="264.008" width="16" height="16"/>
	</g>
</g>
<g>
</g>
<g>
</g>
<g>
</g>
<g>
</g>
<g>
</g>
<g>
</g>
<g>
</g>
<g>
</g>
<g>
</g>
<g>
</g>
<g>
</g>
<g>
</g>
<g>
</g>
<g>
</g>
<g>
</g>
</svg>
